<svg width="640" height="489" viewBox="0 0 640 489" role="img" xmlns="http://www.w3.org/2000/svg">
  <title>Crab on bridge silhouette</title>
  <desc>Traced silhouette of the crab and bridge artwork in white.</desc>
  <path d="M10.0 438.1L10.0 397.2L31.8 384.7L53.5 372.2L53.8 342.1C53.9 325.6 53.7 312.0 53.4 312.0C52.6 312.0 36.3 320.8 33.5 322.6C32.4 323.4 31.2 324.0 30.8 324.0C30.3 324.0 30.1 317.2 30.2 308.8L30.5 293.6L47.5 284.8C85.8 265.0 125.3 249.8 170.0 237.7C179.1 235.2 187.8 233.0 189.5 232.6C191.2 232.3 196.7 231.1 201.9 230.0C238.8 222.1 273.5 218.9 321.5 218.9C360.9 218.9 379.6 220.1 410.5 224.6C470.5 233.3 534.9 254.3 595.5 284.9L610.5 292.5L610.8 307.8C610.9 316.1 610.8 323.0 610.4 323.0C609.9 323.0 601.1 318.3 591.2 312.8C589.4 311.8 587.7 311.0 587.5 311.0C587.2 311.0 587.0 324.7 587.0 341.5L587.0 372.0L589.2 373.3C590.5 374.1 600.2 379.6 610.8 385.6L630.0 396.5L630.0 437.7L630.0 479.0L572.5 479.0L515.0 479.0L515.0 448.0L515.0 417.1L508.9 412.8C448.6 370.6 388.5 350.9 319.6 351.0C273.5 351.1 230.4 360.8 186.0 381.3C166.3 390.4 140.6 406.2 129.8 415.9L127.0 418.4L127.0 448.7L127.0 479.0L68.5 479.0L10.0 479.0L10.0 438.1ZM107.2 347.1C124.2 339.1 153.5 327.0 155.9 327.0C156.7 327.0 157.0 318.9 157.0 297.4L157.0 267.8L154.4 268.4C148.1 270.0 115.4 282.5 104.4 287.5L97.0 290.9L97.0 320.9C97.0 339.9 97.4 351.0 98.0 351.0C98.5 351.0 102.7 349.3 107.2 347.1ZM544.0 320.6L544.0 290.3L538.8 288.0C515.8 278.4 488.3 268.0 485.2 268.0C484.3 268.0 484.0 274.4 484.0 296.8L484.0 325.7L498.2 331.4C506.1 334.6 519.2 340.2 527.5 344.0C535.8 347.7 542.8 350.8 543.2 350.9C543.7 350.9 544.0 337.3 544.0 320.6ZM203.5 313.6C213.5 311.1 228.8 308.0 242.5 305.6L255.5 303.4L255.5 275.0L255.5 246.5L252.0 246.8C241.4 247.7 224.7 250.7 196.8 256.7L194.0 257.2L194.0 286.7C194.0 314.3 194.1 316.1 195.8 315.6C196.7 315.3 200.2 314.4 203.5 313.6ZM447.0 286.1L447.0 257.3L442.8 256.2C437.6 254.8 421.7 251.5 413.5 250.1C408.1 249.2 402.3 248.3 389.2 246.5L385.0 246.0L385.2 274.7L385.5 303.4L402.0 306.1C419.3 309.0 442.0 313.7 442.9 314.5C443.1 314.8 444.2 315.0 445.2 315.0C446.9 315.0 447.0 313.5 447.0 286.1ZM350.8 271.4L351.0 243.3L342.8 242.7C332.2 241.8 309.9 241.8 299.2 242.7L291.0 243.3L291.0 271.4L291.0 299.5L320.8 299.5L350.5 299.5L350.8 271.4ZM186.4 208.8C182.0 206.7 180.2 198.7 182.3 190.6C189.0 165.2 216.9 155.5 226.1 175.5C229.2 182.2 228.8 183.0 222.4 183.0C209.9 183.0 203.3 187.6 196.7 201.0C192.3 209.9 190.8 211.0 186.4 208.8ZM450.2 209.3C449.5 209.1 447.5 205.6 445.6 201.7C439.6 188.9 431.1 183.0 418.8 183.0L412.8 183.0L413.5 180.2C414.6 175.8 418.3 169.8 421.3 167.6C425.1 164.8 436.8 164.6 442.1 167.3C451.5 172.0 457.8 180.5 460.1 191.5C462.5 203.4 457.6 212.3 450.2 209.3ZM302.0 207.4C251.2 201.4 220.9 174.4 229.4 142.5L230.9 136.5L226.6 132.8C218.9 126.2 217.0 117.9 222.1 113.6L225.2 111.0L220.1 111.0C211.7 111.0 204.6 107.6 197.1 100.1C186.5 89.5 182.3 78.3 183.3 63.6C184.7 41.9 196.9 24.7 218.4 13.9C229.2 8.5 229.0 8.4 227.0 18.3C224.4 30.9 223.0 42.8 223.1 51.6C223.2 64.5 223.6 64.6 231.4 54.1C240.1 42.4 257.7 26.4 259.7 28.4C260.0 28.7 261.0 33.9 261.8 40.1C266.0 69.8 254.4 97.9 234.0 107.8C230.4 109.5 228.0 111.0 228.7 111.0C229.4 111.0 230.8 113.0 231.8 115.3C233.0 118.0 235.1 120.5 237.3 121.9L240.9 124.1L245.5 120.6C255.6 112.9 273.9 105.1 289.2 102.0C296.2 100.6 297.2 97.9 291.7 95.6C283.7 92.3 281.6 83.0 287.4 77.1C291.6 73.0 299.1 73.3 303.2 77.9C305.9 80.9 306.2 81.8 305.8 86.2C305.5 88.8 304.6 91.8 303.6 92.8C302.7 93.8 302.0 95.6 302.0 96.8C302.0 99.0 302.2 99.0 317.9 99.0C326.6 99.0 335.2 99.3 336.9 99.6C339.7 100.2 340.0 100.0 340.0 97.9C340.0 96.7 339.0 93.7 337.9 91.3C335.1 85.5 335.8 80.5 340.0 76.8C347.0 70.4 358.0 76.0 358.0 85.8C358.0 89.4 352.6 96.0 349.7 96.0C348.9 96.0 348.0 97.1 347.8 98.4C347.3 100.7 347.8 100.9 356.8 103.0C372.4 106.6 389.2 114.2 398.1 121.7C400.9 124.1 401.2 124.1 403.5 122.6C405.9 121.0 410.0 115.4 411.3 111.8C411.8 110.4 411.0 109.5 407.8 107.9C395.3 101.5 385.3 86.6 381.5 68.5C378.7 55.2 380.2 29.0 383.8 29.0C387.8 29.0 405.1 45.5 413.0 56.8C417.2 62.8 417.4 63.0 418.3 60.8C419.6 57.4 418.3 34.0 416.0 21.6C415.0 15.5 414.3 10.4 414.5 10.2C415.3 9.4 429.9 16.8 435.3 20.8C458.0 37.6 465.4 65.9 453.3 89.3C447.2 101.0 435.1 109.9 424.3 110.8C418.3 111.3 418.3 111.2 421.0 114.8C424.0 118.9 422.1 124.9 415.8 131.4L410.9 136.4L412.6 143.0C419.6 170.7 395.5 196.0 353.3 205.1C343.8 207.1 311.8 208.6 302.0 207.4ZM172.2 169.8C170.0 167.6 170.8 160.6 174.0 154.4C177.7 146.9 184.8 139.7 192.0 136.2C199.2 132.7 209.3 132.4 213.7 135.6C217.8 138.7 221.0 144.8 221.0 149.9L221.0 154.2L217.2 153.4C205.1 150.6 196.2 153.7 185.8 164.2C179.0 171.2 175.1 172.7 172.2 169.8ZM456.3 164.4C445.7 154.1 437.1 151.0 425.2 153.3L421.0 154.2L421.0 149.8C421.0 144.1 424.5 138.1 429.5 135.2C437.6 130.5 450.8 134.1 460.3 143.7C468.9 152.3 473.5 165.3 469.4 169.4C466.4 172.5 463.3 171.3 456.3 164.4Z" fill="#FFFFFF" fill-rule="evenodd"/>
</svg>
